<?xml version="1.0" standalone="no"?>
<!DOCTYPE svg PUBLIC "-//W3C//DTD SVG 20010904//EN"
 "http://www.w3.org/TR/2001/REC-SVG-20010904/DTD/svg10.dtd">
<svg version="1.0" xmlns="http://www.w3.org/2000/svg"
 width="214.000000pt" height="214.000000pt" viewBox="0 0 214.000000 214.000000"
 preserveAspectRatio="xMidYMid meet">
<metadata>
Created by potrace 1.14, written by Peter Selinger 2001-2017
</metadata>
<g transform="translate(0.000000,214.000000) scale(0.100000,-0.100000)"
fill="#000000" stroke="none">
<path d="M906 1899 c-4 -19 -9 -68 -13 -109 -5 -57 -11 -78 -25 -88 -10 -7
-18 -24 -18 -37 0 -15 -7 -26 -20 -30 -32 -10 -98 -82 -126 -136 -96 -190 -59
-521 78 -699 l34 -45 -28 -23 c-15 -13 -28 -30 -28 -38 0 -8 -6 -14 -12 -14
-7 0 -37 -12 -67 -26 l-55 -25 -50 22 c-65 28 -168 22 -242 -12 -103 -49 -174
-160 -174 -272 0 -104 -20 -96 237 -97 l226 -1 -5 86 -6 86 32 -24 c28 -22 31
-30 34 -86 l3 -61 679 0 680 0 0 184 0 183 -62 29 c-56 26 -74 29 -158 29 -84
0 -101 -3 -145 -27 -27 -15 -62 -38 -77 -52 l-27 -26 -20 45 c-23 51 -65 81
-128 91 -27 4 -43 11 -43 20 0 20 -54 50 -101 58 l-39 6 38 68 37 67 -2 195
c-2 214 -16 309 -58 395 -34 71 -87 121 -149 141 -28 10 -56 24 -62 32 -8 11
-20 13 -45 8 -101 -20 -99 -21 -99 10 0 55 13 164 19 164 4 0 19 -36 35 -80
16 -45 31 -79 33 -76 6 6 -32 117 -56 164 l-18 35 -7 -34z m-63 -374 c3 -7 -2
-24 -12 -36 -21 -26 -61 -19 -61 11 0 33 62 55 73 25z m-73 -92 c0 -10 -16
-28 -35 -40 l-34 -23 10 28 c16 44 59 69 59 35z m324 -9 c23 -22 20 -51 -9
-79 -43 -44 -101 -28 -119 32 -13 41 9 63 64 63 31 0 54 -6 64 -16z m-202 -29
c24 -53 -35 -111 -87 -87 -49 22 -51 90 -4 103 52 15 79 10 91 -16z m-117
-208 c4 -27 4 -51 1 -55 -22 -21 -76 61 -76 115 l0 32 34 -22 c29 -18 35 -30
41 -70z"/>
<path d="M1027 1393 c-12 -11 -8 -23 8 -23 8 0 15 7 15 15 0 16 -12 20 -23 8z"/>
<path d="M830 1365 c0 -8 5 -15 10 -15 6 0 10 7 10 15 0 8 -4 15 -10 15 -5 0
-10 -7 -10 -15z"/>
</g>
</svg>
